<svg width="51" height="111" viewBox="0 0 51 111" fill="none" xmlns="http://www.w3.org/2000/svg">
<path fill-rule="evenodd" clip-rule="evenodd" d="M0 0.999991L1.79167 5.20832L3.63184 4.42489L1.84017 0.216553L0 0.999991ZM5.375 13.625L8.95833 22.0417L10.7985 21.2582L7.21517 12.8416L5.375 13.625ZM12.5417 30.4583L16.125 38.875L17.9652 38.0916L14.3818 29.6749L12.5417 30.4583ZM19.7083 47.2917L23.2917 55.7083L25.1318 54.9249L21.5485 46.5082L19.7083 47.2917ZM26.875 64.125L30.4583 72.5417L32.2985 71.7582L28.7152 63.3416L26.875 64.125ZM34.0417 80.9583L37.625 89.375L39.4652 88.5915L35.8818 80.1749L34.0417 80.9583ZM44.8088 101.143C45.1905 101.049 45.5895 101 46 101C48.7614 101 51 103.239 51 106C51 108.761 48.7614 111 46 111C43.2386 111 41 108.761 41 106C41 104.364 41.7855 102.912 42.9999 102L41.2083 97.7916L43.0485 97.0082L44.8088 101.143Z" fill="#D9D9D9"/>
<path fill-rule="evenodd" clip-rule="evenodd" d="M0 0.999991L1.79167 5.20832L3.63184 4.42489L1.84017 0.216553L0 0.999991ZM5.375 13.625L8.95833 22.0417L10.7985 21.2582L7.21517 12.8416L5.375 13.625ZM12.5417 30.4583L16.125 38.875L17.9652 38.0916L14.3818 29.6749L12.5417 30.4583ZM19.7083 47.2917L23.2917 55.7083L25.1318 54.9249L21.5485 46.5082L19.7083 47.2917ZM26.875 64.125L30.4583 72.5417L32.2985 71.7582L28.7152 63.3416L26.875 64.125ZM34.0417 80.9583L37.625 89.375L39.4652 88.5915L35.8818 80.1749L34.0417 80.9583ZM44.8088 101.143C45.1905 101.049 45.5895 101 46 101C48.7614 101 51 103.239 51 106C51 108.761 48.7614 111 46 111C43.2386 111 41 108.761 41 106C41 104.364 41.7855 102.912 42.9999 102L41.2083 97.7916L43.0485 97.0082L44.8088 101.143Z" fill="url(#paint0_linear_1_16)"/>
<defs>
<linearGradient id="paint0_linear_1_16" x1="-60" y1="28.0001" x2="-29.3724" y2="10.2577" gradientUnits="userSpaceOnUse">
<stop stop-color="#9C63A8"/>
<stop offset="1" stop-color="#E4B4EE"/>
</linearGradient>
</defs>
</svg>
