<svg width="51" height="111" viewBox="0 0 51 111" fill="none" xmlns="http://www.w3.org/2000/svg">
<path fill-rule="evenodd" clip-rule="evenodd" d="M51 0.783439L49.2083 4.99177L47.3682 4.20833L49.1598 0L51 0.783439ZM45.625 13.4084L42.0417 21.8251L40.2015 21.0417L43.7848 12.625L45.625 13.4084ZM38.4583 30.2418L34.875 38.6584L33.0348 37.875L36.6182 29.4583L38.4583 30.2418ZM31.2917 47.0751L27.7083 55.4918L25.8682 54.7083L29.4515 46.2917L31.2917 47.0751ZM24.125 63.9084L20.5417 72.3251L18.7015 71.5417L22.2848 63.125L24.125 63.9084ZM16.9583 80.7418L13.375 89.1584L11.5348 88.375L15.1182 79.9583L16.9583 80.7418ZM6.19124 100.926C5.80947 100.833 5.41051 100.783 5 100.783C2.23857 100.783 0 103.022 0 105.783C0 108.545 2.23857 110.783 5 110.783C7.76143 110.783 10 108.545 10 105.783C10 104.148 9.2145 102.695 8.00011 101.783L9.79167 97.5751L7.9515 96.7917L6.19124 100.926Z" fill="#D9D9D9"/>
<path fill-rule="evenodd" clip-rule="evenodd" d="M51 0.783439L49.2083 4.99177L47.3682 4.20833L49.1598 0L51 0.783439ZM45.625 13.4084L42.0417 21.8251L40.2015 21.0417L43.7848 12.625L45.625 13.4084ZM38.4583 30.2418L34.875 38.6584L33.0348 37.875L36.6182 29.4583L38.4583 30.2418ZM31.2917 47.0751L27.7083 55.4918L25.8682 54.7083L29.4515 46.2917L31.2917 47.0751ZM24.125 63.9084L20.5417 72.3251L18.7015 71.5417L22.2848 63.125L24.125 63.9084ZM16.9583 80.7418L13.375 89.1584L11.5348 88.375L15.1182 79.9583L16.9583 80.7418ZM6.19124 100.926C5.80947 100.833 5.41051 100.783 5 100.783C2.23857 100.783 0 103.022 0 105.783C0 108.545 2.23857 110.783 5 110.783C7.76143 110.783 10 108.545 10 105.783C10 104.148 9.2145 102.695 8.00011 101.783L9.79167 97.5751L7.9515 96.7917L6.19124 100.926Z" fill="url(#paint0_linear_1_19)"/>
<defs>
<linearGradient id="paint0_linear_1_19" x1="44.8829" y1="-30.5607" x2="4.60462" y2="-30.2309" gradientUnits="userSpaceOnUse">
<stop stop-color="#A66AF2"/>
<stop offset="1" stop-color="#6122A5"/>
</linearGradient>
</defs>
</svg>
